<svg xmlns="http://www.w3.org/2000/svg" viewBox="0 0 640 220">
  <path fill="#f1f3f9" d="M0 0h640v220H0z"/>
  <path d="M126.37 171.323l.021.015 20.149 14.452-7.73-23.405-.008-.026 10.67-7.648 9.458-6.777h-24.865l-7.696-23.306-7.738 23.306H93.809l3.952 2.838.867.623 15.266 10.964-.205.623-7.533 22.808 10.5-7.515zm-8.676-7.744l.898-2.72-2.345-1.684-6.215-4.464-3.952-2.838h15.447l.9-2.713 3.932-11.84 1.905 5.77 2.002 6.063.898 2.72h15.474l-3.96 2.838-6.226 4.462-2.349 1.683.9 2.723 3.923 11.878-10.206-7.32-2.348-1.684-2.35 1.682-5.26 3.765-4.998 3.577zm-56.84-15.645H35.988l-7.696-23.306-7.74 23.306H0v3.065l.551.396 15.267 10.964-.206.623-7.533 22.808 10.5-7.515 9.714-6.952.021.015 20.15 14.452-7.73-23.405-.01-.026 10.672-7.648zM44.6 154.71l-6.225 4.462-2.35 1.683.9 2.723 3.923 11.878-10.206-7.32-2.348-1.684-2.35 1.682-5.26 3.765-4.998 3.577 3.93-11.898.898-2.72-2.345-1.684-6.215-4.464-3.952-2.838H23.45l.901-2.714 3.931-11.838 1.906 5.77 2.002 6.062.898 2.72H48.56zM115.362 220H0v-20.392h115.362zM590.831 58.08V38.89H640v19.19zm-82.082 93.648l.054.04 50.373 36.58-19.326-59.245-.02-.064 26.678-19.359 23.642-17.155h-62.16l-19.24-58.992-19.348 58.992h-62.055l9.88 7.184 2.169 1.577 38.166 27.753-.515 1.577-18.832 57.732 26.25-19.022zm-21.69-19.602l2.246-6.884-5.862-4.263-15.538-11.299-9.88-7.184h38.617l2.253-6.869 9.828-29.966 4.763 14.604 5.005 15.347 2.246 6.884h38.683l-9.9 7.184-15.564 11.293-5.872 4.262 2.248 6.891 9.807 30.067-25.514-18.528-5.87-4.263-5.874 4.257-13.152 9.53-12.493 9.055z" fill="#fff"/>
  <path d="M115.362 0H0v21.354h115.362z" fill="#001d3a"/>
  <path fill="#036" d="M2 2h111.362v17.354H2z"/>
  <path d="M35.365 73.314V51.96H0v21.354h35.365zm176.56-60.123H640V.001H211.924z" fill="#ae0015"/>
  <path d="M2 71.314V53.96h31.365v17.354zM638 2H213.924v9.191H638z" fill="#c20017"/>
  <path d="M134.065 147.934l-7.696-23.306 2.88 2.839 6.758 20.467zm2.88 6.777h5.733l3.96-2.838h-15.474l2.88 2.838zm-12.54 0l.902-2.713 2.957-8.907-1.905-5.77-3.931 11.838-.901 2.714H106.08l3.952 2.838h14.373zm34.525-6.777l-9.457 6.777h.044l-10.186 7.3 2.35 3.186 20.128-14.425zm-61.17 2.838h-1.073l1.941.623zm-71.431 3.94l.9-2.714 2.959-8.907-1.906-5.77-3.931 11.838-.901 2.714H8.003l3.952 2.838h14.374zm11.601-6.778l-6.758-20.467-2.88-2.839 7.697 23.306zm.938 6.777H44.6l3.96-2.838H33.088l2.878 2.838zm21.985-6.777l-9.457 6.777h.044l-10.186 7.3 2.35 3.186 20.128-14.425zM124.143 25V2.683L115.362 0v21.354zM35.364 73.314l8.777 3.646V54.643l-8.777-2.683v21.354zM124.142 220v-17.709l-8.78-2.683V220zm87.782-206.809V.001H640V0H211.924l-8.788 2.788V16.98l8.788-3.789zM590.831 38.89l-8.789 2.788V61.87l8.789-3.788zm-86.992 70.791l2.253-6.869 7.394-22.546-4.763-14.604-9.828 29.966-2.253 6.869h-38.617l9.88 7.184h35.934zm86.311-17.155l-23.642 17.155h.11l-25.465 18.478 5.874 8.065 50.32-36.514zm-152.923 7.184h-2.683l4.852 1.577zm97.96 9.971h14.332l9.901-7.184h-38.683l7.196 7.184zm-2.344-17.155l-16.897-51.808-7.197-7.184 19.24 58.992z" fill="#cedfee"/>
  <path d="M118.761 171.9l-4.997 3.577 3.93-11.898.898-2.72 2.879 2.838-.899 2.72zm20.049-9.515l7.73 23.405-20.149-14.452-9.748 6.977.013-.04-10.5 7.515 2.879 2.838 20.213-14.467 20.17 14.467-7.738-23.43-2.349-3.187zm-40.182-10.99l-1.94-.623 17 12.21.206-.623zm-98.077 0L0 151.218v.552l15.612 11.212.206-.623zm21.945 15.022l.898-2.72-2.879-2.838-.898 2.72-3.93 11.898 4.998-3.577zm18.237-4.032l7.73 23.405-20.149-14.452-9.748 6.977.013-.04-10.5 7.515 2.88 2.838 20.213-14.467 20.17 14.467-7.738-23.43-2.35-3.187zm74.63-141.03H0V25h124.142zm-79.998 51.96H0v3.645h44.142zM640 13.19H211.924l-8.788 3.789H640zm0 44.89h-49.17l-8.788 3.788H640zm-145.743 81.23l2.245-6.885-7.197-7.184-2.245 6.884-9.824 30.118 12.493-9.054zm-54.861-38.025l-4.852-1.577 42.503 30.907.515-1.577zm100.454 27.817l19.326 59.245-50.373-36.58-24.37 17.66.033-.102-26.25 19.022 7.196 7.185 50.534-36.62 50.427 36.62-19.346-59.31-5.874-8.065z" fill="#bdcbd6"/>
</svg>
