<svg data-name="Layer 1" xmlns="http://www.w3.org/2000/svg" viewBox="0 0 264 128">
  <g fill-rule="evenodd" data-name="nav/desktop-1280">
    <path d="M1.374 73.984h261.551V39.038H1.375zm222.76 33.656l.323-.234 6.306-4.583h-8.195l-.123-.379-2.409-7.414-2.409 7.414-.123.38h-8.195l6.307 4.582.323.234-.124.38-2.409 7.414 6.307-4.582.323-.235.323.235 6.307 4.582-2.41-7.414zm-172.433.38l2.409 7.414-6.306-4.582-.324-.235-.323.235-6.306 4.582 2.408-7.414.124-.38-.323-.234-6.307-4.583h8.195l.123-.38 2.41-7.413 2.408 7.414.124.38h8.195l-6.307 4.582-.323.234z" fill="#d20f26"/>
    <path d="M160.176 51.583h.646a9.454 9.454 0 012.141.208 4.142 4.142 0 01.043.582c0 2.044-1.29 2.82-2.83 3.092zm12.207 2.817a7.398 7.398 0 00-2.59-6.085 6.478 6.478 0 00-.575-.612 6.51 6.51 0 00-.404-.4 6.544 6.544 0 00-.619-.603c-1.598-1.846-4.16-2.71-7.161-2.71h-9.963v24.507l-.922.474 1.634 1.634.777.778.951.95h6.665v-8.645l3.218 5.096-.222.187 3.363 3.363h8.296l-8.059-10.616c3.639-.653 5.61-3.745 5.61-7.318zM113.288 52.1a7.316 7.316 0 013.845 1.105 6.347 6.347 0 01.957 3.291 7.39 7.39 0 01-7.243 7.73 7.007 7.007 0 01-3.636-1.015 8.157 8.157 0 01-1.166-4.275 7.2 7.2 0 017.243-6.836zm9.902-2.757q-.313-.345-.649-.667-.185-.191-.378-.376-.264-.276-.543-.537a14.739 14.739 0 00-10.773-4.63c-7.379 0-14.179 5.496-14.179 13.329a14.212 14.212 0 004.393 10.66q.272.293.56.568.19.198.386.387c.212.22.43.436.657.641a14.013 14.013 0 0010.624 4.476c8.228 0 14.179-5.91 14.179-14.292a12.743 12.743 0 00-4.277-9.56zm-95.308 14.8V52.133h1.565a8.134 8.134 0 013.963.945 7.949 7.949 0 01.907 3.864c0 4.644-2.878 6.872-6.435 7.2zM39.428 49.77q-.308-.342-.64-.66-.184-.19-.374-.372-.266-.279-.549-.541a13.048 13.048 0 00-9.635-4.207h-9.452v24.264l-.922.717 3.362 3.363h9.453a12.956 12.956 0 008.757-22.564zm53.68-3.34l3.876 25.904H90.32l-1.728-1.729-1.634-1.634.751-.439-.911-7.27-4.57 11.072h-2.653l-1.728-1.729-1.634-1.634.433-.319-3.397-8.61-1.766 12.292h-6.63l-1.73-1.729-1.449-1.45v3.179H47.086l-3.363-3.363.923-.642V43.99h11.739l1.926-.922 1.633 1.633.437.437.34.341.952.951v5.703H53.75V53.9c2.056-.386 4.153-.8 4.153-.8l3.362 3.362v5.703H53.75v1.574l4.56-.47 2.07 2.07 1.293 1.292v2.194l1.008-.798.044-.004 4.038-24.033h5.573l.068-.922 1.633 1.633.778.778.951.951 3.369 8.966.33.086 4.572-11.492h5.022l.686-.922 2.412 2.411zm157.437 0l-9.453 13.467v12.437h-6.665l-3.362-3.363.922-.555V57.457l-9.452-13.467h6.581l.487-.922 3.362 3.362 2.744 4.03 4.405-6.47h6.108l.96-.922zm-27.84.619v8.073a6.665 6.665 0 00-.95-1.028v.077c-.08-.108-.172-.203-.257-.306-.027-.022-.057-.04-.085-.061v.026c-.017-.023-.037-.043-.055-.065a7.424 7.424 0 00-4.501-1.494c-4.08 0-6.835 3.16-6.835 7.18a7.558 7.558 0 00.901 3.67c2.656.243 5.863.476 5.863.476l2.557-3.214 3.363 3.362v8.074a18.705 18.705 0 01-5.883 1.202 14.193 14.193 0 01-9.623-3.814 12.987 12.987 0 01-.884-.891l-.067-.06c-.22-.2-.426-.406-.627-.615a12.97 12.97 0 01-.373-.376q-.275-.263-.53-.536a12.734 12.734 0 01-4.074-9.753 13.63 13.63 0 013.775-9.482 13.824 13.824 0 019.759-4.191 14.677 14.677 0 014.493.72l.67-.337 1.635 1.634.436.436zm-73.222 0v8.073a6.648 6.648 0 00-.95-1.028v.077c-.08-.108-.171-.203-.257-.305-.027-.023-.058-.04-.085-.062v.026c-.017-.023-.038-.042-.055-.065a7.425 7.425 0 00-4.502-1.495c-4.08 0-6.834 3.161-6.834 7.18a7.542 7.542 0 00.929 3.722 7.272 7.272 0 003.567.881 7.542 7.542 0 004.482-1.55l.343-2.12 3.362 3.362v8.073a18.703 18.703 0 01-5.883 1.203 14.192 14.192 0 01-9.622-3.814 12.991 12.991 0 01-.884-.892c-.022-.02-.046-.038-.068-.059-.219-.2-.425-.406-.626-.616a12.983 12.983 0 01-.374-.376q-.275-.263-.53-.536a12.734 12.734 0 01-4.073-9.752 13.63 13.63 0 013.774-9.482 13.824 13.824 0 019.76-4.191 14.804 14.804 0 014.796.82l.368-.437zm40.955 13.19h-2.287l1.15-3.444zm-.004-17.171l-1.098.922h-5.257l-8.336 21.898-2.447 3.083 3.362 3.363h7.073l1.768-4.5h7.644l.02.054-.18 1.083 1.634 1.634.778.778.951.95h7.107l-9.657-25.903zM1.374 73.984h261.55V39.038H1.375zM0 75.358h264.3V37.664H0zm220.36 35.494l-.324-.235-.323.235-6.306 4.582 2.408-7.414.124-.38-.323-.234-6.307-4.583h8.195l.123-.38 2.41-7.413 2.408 7.414.124.38h8.194l-6.306 4.582-.323.234.123.38 2.409 7.414zm12.095-8.578h-9.487l-2.932-9.023-2.931 9.023h-9.488l7.676 5.577-2.932 9.022 7.675-5.576 7.675 5.576-2.931-9.023zm-184.652 8.578l-.323-.235-.323.235-6.306 4.582 2.409-7.414.123-.38-.323-.234-6.307-4.583h8.195l.123-.38 2.41-7.413 2.408 7.414.124.38h8.194l-6.306 4.582-.323.234.123.38 2.41 7.414zm2.609-8.578L47.48 93.25l-2.931 9.023H35.06l7.676 5.577-2.932 9.022 7.675-5.576 7.676 5.576-2.932-9.022 7.675-5.577z" fill="#9b0012"/>
    <path d="M188.156 97.51v15.682c0 6.396-3.307 7.738-6.082 7.738-5.078 0-6.144-4.208-6.144-7.738V97.51c0-3.53 1.066-7.739 6.144-7.739 2.775 0 6.082 1.343 6.082 7.739zm7.804 16.453V96.675c0-4.703-1.393-8.27-4.138-10.603-2.356-2-5.727-3.059-9.748-3.059-4.024 0-7.394 1.06-9.748 3.067-2.746 2.341-4.138 5.928-4.138 10.66v17.223c0 8.595 5.19 13.726 13.886 13.726 8.694 0 13.886-5.131 13.886-13.726zm-34.82 13.148v-6.76h-15.124l9.3-11.404c2.666-3.285 6.317-7.785 6.317-13.493 0-7.092-5.599-12.44-13.023-12.44-7.245 0-12.744 5.141-12.955 12.028h6.847c.375-3.341 2.522-5.398 5.677-5.398a5.46 5.46 0 015.712 5.81c0 2.884-1.245 5.68-4.037 9.065l-14.143 17.366v5.226zm-38.309-29.6v15.68c0 6.397-3.307 7.74-6.082 7.74-5.078 0-6.144-4.21-6.144-7.74v-15.68c0-3.53 1.066-7.739 6.144-7.739 2.775 0 6.082 1.343 6.082 7.739zm7.804 16.452V96.675c0-4.703-1.393-8.27-4.138-10.603-2.356-2-5.727-3.059-9.748-3.059-4.024 0-7.394 1.06-9.747 3.067-2.746 2.341-4.139 5.928-4.139 10.66v17.223c0 8.595 5.191 13.726 13.886 13.726s13.886-5.131 13.886-13.726zM97.048 127.11v-6.76H81.924l9.3-11.404c2.665-3.285 6.317-7.784 6.317-13.493 0-7.092-5.599-12.44-13.023-12.44-7.245 0-12.744 5.141-12.955 12.028h6.847c.374-3.341 2.521-5.398 5.676-5.398a5.46 5.46 0 015.713 5.81c0 2.884-1.246 5.68-4.037 9.065l-14.144 17.366v5.226zM146.947 5.316v12.698L139.35 5.328h-7.322l-.062 25.142 6.473-.014V15.891l8.672 14.579h6.123V5.328zm53.69 17.685c1.036 4.88 4.645 7.72 10.17 7.72a9.635 9.635 0 007.283-2.986 8.224 8.224 0 002.135-5.607 7.076 7.076 0 00-2.103-5.39c-1.696-1.565-3.673-1.966-5.808-2.585-2.574-.728-3.986-.8-3.986-2.294a2.016 2.016 0 012.229-1.82 3.34 3.34 0 013.515 2.549l5.556-1.857c-1.381-4.115-4.363-6.336-8.632-6.336-5.807 0-9.355 3.568-9.355 8.375 0 4.15 2.386 6.19 7.315 7.646 2.888.874 4.425.802 4.425 2.658 0 .984-.91 1.748-2.448 1.748-2.354 0-3.704-1.056-4.175-3.167zm-22.28 7.487h5.92l2.897-14.384 2.992 14.384h5.792l5.92-25.27h-5.252l-3.15 14.6-3.088-14.6h-5.442l-2.928 14.747-3.056-14.748h-6.492zm-23.5 0h16.502v-5.9h-10.146v-4.296h8.236V14.83h-8.236v-3.714h10.02V5.217h-16.376zm-61.979.257a12.806 12.806 0 0012.906-12.704 12.908 12.908 0 00-25.812 0 12.806 12.806 0 0012.906 12.704zm-.039-5.348a2.23 2.23 0 01-2.248-2.213l.003-10.68a2.317 2.317 0 012.245-2.315 2.388 2.388 0 012.326 2.316l-.046 10.71a2.232 2.232 0 01-2.28 2.182zm32.653 5.065l-7.816-13.074 7.035-12.05h-8.083l-3.027 5.234-3.13-5.234h-8.102l7.241 12.135-7.512 12.99 7.949-.008 3.615-6.193 3.7 6.2zM71.47 30.5l.003-8.147h7.233v-6.875h-7.173V12.19h8.805l-.483-6.89H64.123v25.2zM62.67 17.993a29.828 29.828 0 00-3.706-4.33l3.706-4.185v-5.63h4.986L70.822.275H61.85l-6.598 10.348a29.676 29.676 0 00-3.663-2.17L55.352.275h-7.969l-1.452 6.05a29.526 29.526 0 00-7.486-.963V6.84a28.051 28.051 0 017.14.922l-6.9 28.742L50.971 9.795a28.19 28.19 0 013.487 2.074L38.795 36.436l19.19-21.668a28.298 28.298 0 014.686 5.958zm5.208 13.959a29.771 29.771 0 01.153 2.998c0 .094-.003.188-.006.281l-.005.173-1.477-.024.006-.2c.003-.076.006-.153.006-.23a28.286 28.286 0 00-.161-2.998z" fill="#036"/>
    <path d="M221.612 43.068h7.99l4.795 7.043 4.795-7.043h7.99l-9.452 13.467V68.97h-6.665V56.535zm-2.27 8.692a7.205 7.205 0 00-5.847-2.852c-4.081 0-6.835 3.16-6.835 7.18a6.684 6.684 0 006.937 7.043 7.635 7.635 0 005.746-2.748v8.073a18.701 18.701 0 01-5.882 1.202 14.195 14.195 0 01-9.624-3.813 12.731 12.731 0 01-4.114-9.791 13.63 13.63 0 013.775-9.482 13.823 13.823 0 019.759-4.191 15.5 15.5 0 016.086 1.305zm-32.547-.688h-.068l-2.754 8.246h5.543zm-4.658 13.399l-1.768 4.5h-7.073l9.86-25.903h7.278l9.656 25.903h-7.106l-1.666-4.5zm-25.323-9.791h.646c2.176 0 4.624-.413 4.624-3.23s-2.448-3.229-4.624-3.229h-.646zm14.655 14.291h-8.297l-6.29-9.963h-.068v9.963h-6.665V43.068h9.963c5.067 0 8.909 2.439 8.909 7.97 0 3.573-1.972 6.665-5.611 7.318zM146.121 51.76a7.207 7.207 0 00-5.849-2.852c-4.08 0-6.835 3.16-6.835 7.18a6.685 6.685 0 006.937 7.043 7.637 7.637 0 005.747-2.748v8.073a18.704 18.704 0 01-5.883 1.202 14.194 14.194 0 01-9.623-3.813 12.731 12.731 0 01-4.114-9.791 13.63 13.63 0 013.774-9.482 13.824 13.824 0 019.76-4.191 15.502 15.502 0 016.086 1.305zm-43.439 3.813a7.258 7.258 0 1014.486 0 7.255 7.255 0 00-14.486 0zm21.422-.034c0 8.382-5.95 14.291-14.179 14.291s-14.18-5.909-14.18-14.291c0-7.833 6.801-13.33 14.18-13.33s14.18 5.497 14.18 13.33zM65.841 43.068h6.563l5.202 13.845 5.509-13.845h6.63l3.877 25.903h-6.665l-1.87-14.91h-.068l-6.155 14.91h-2.652l-5.883-14.91h-.067l-2.143 14.91h-6.63zM50.388 48.77v4.328h7.515v5.703h-7.515v4.466h7.923v5.703H43.723V43.068h14.588v5.703zM24.52 63.268h1.496c3.979 0 7.379-2.198 7.379-7.248 0-4.638-3.026-7.25-7.31-7.25H24.52zm-6.665-20.2h9.453a12.952 12.952 0 110 25.903h-9.453z" fill="#fff"/>
  </g>
</svg>
