<svg id="tag-small" xmlns="http://www.w3.org/2000/svg" viewBox="0 0 13.9 9.6">
	<defs><style>.cls-1{fill:#fff;}</style></defs>
	<path id="flip" class="cls-1" d="M3.9,1.2c-0.3,0-0.5,0-0.8,0c-0.6,0-1,0.3-1,0.8v0.4h1v1h-1v4.2H0.8V3.4H0v-1h0.8V1.9c0-0.6,0.2-1.1,0.6-1.4
	S2.3,0,3,0c0.5,0,1.3,0.1,2.4,0.2v7.4H3.9V1.2z M8,7.6H6.6V2.3H8V7.6z M6.5,1c0-0.2,0.1-0.4,0.2-0.5S7,0.3,7.3,0.3
	c0.2,0,0.4,0.1,0.6,0.2S8.1,0.7,8.1,1c0,0.2-0.1,0.4-0.2,0.5S7.5,1.7,7.3,1.7S6.9,1.6,6.7,1.5S6.5,1.2,6.5,1z M13.9,5
	c0,0.8-0.2,1.5-0.6,2s-0.9,0.7-1.5,0.7c-0.5,0-1-0.2-1.3-0.6v2.5H9.2V2.3h1.3v0.5c0.3-0.4,0.8-0.6,1.3-0.6c0.7,0,1.2,0.2,1.5,0.7
	S13.9,4.1,13.9,5L13.9,5z M12.5,4.9c0-0.5-0.1-0.9-0.3-1.1s-0.4-0.4-0.8-0.4c-0.4,0-0.7,0.2-0.9,0.5V6c0.2,0.3,0.5,0.5,0.9,0.5
	C12.2,6.6,12.5,6,12.5,4.9z"/>
</svg>
