<svg width="32" height="32" viewBox="0 0 32 32" xmlns="http://www.w3.org/2000/svg">
    <g id="icon/menu" stroke="none" stroke-width="1" fill="none" fill-rule="evenodd">
        <path d="M2,6 L30,6 C31.1045695,6 32,6.8954305 32,8 C32,9.1045695 31.1045695,10 30,10 L2,10 C0.8954305,10 1.3527075e-16,9.1045695 0,8 C-1.3527075e-16,6.8954305 0.8954305,6 2,6 Z M2,14 L30,14 C31.1045695,14 32,14.8954305 32,16 C32,17.1045695 31.1045695,18 30,18 L2,18 C0.8954305,18 1.3527075e-16,17.1045695 0,16 C-1.3527075e-16,14.8954305 0.8954305,14 2,14 Z M2,22 L30,22 C31.1045695,22 32,22.8954305 32,24 C32,25.1045695 31.1045695,26 30,26 L2,26 C0.8954305,26 1.3527075e-16,25.1045695 0,24 C-1.3527075e-16,22.8954305 0.8954305,22 2,22 Z" id="menu" fill="#ffffff" fill-rule="nonzero"></path>
    </g>
</svg>
